<svg xmlns="http://www.w3.org/2000/svg" xmlns:xlink="http://www.w3.org/1999/xlink" version="1.1" x="0px" y="0px" viewBox="0 0 100 125" enable-background="new 0 0 100 100" xml:space="preserve"><circle cx="34.78" cy="38.597" r="10.994"/><line stroke="#000000" stroke-width="5" stroke-linecap="round" stroke-miterlimit="10" x1="34.78" y1="15.408" x2="34.78" y2="20.046"/><line stroke="#000000" stroke-width="5" stroke-linecap="round" stroke-miterlimit="10" x1="18.383" y1="22.2" x2="21.66" y2="25.48"/><line stroke="#000000" stroke-width="5" stroke-linecap="round" stroke-miterlimit="10" x1="11.591" y1="38.597" x2="16.229" y2="38.597"/><line stroke="#000000" stroke-width="5" stroke-linecap="round" stroke-miterlimit="10" x1="18.383" y1="54.994" x2="21.663" y2="51.715"/><line stroke="#000000" stroke-width="5" stroke-linecap="round" stroke-miterlimit="10" x1="34.78" y1="61.787" x2="34.78" y2="57.147"/><line stroke="#000000" stroke-width="5" stroke-linecap="round" stroke-miterlimit="10" x1="51.177" y1="54.994" x2="47.896" y2="51.715"/><line stroke="#000000" stroke-width="5" stroke-linecap="round" stroke-miterlimit="10" x1="57.969" y1="38.598" x2="53.331" y2="38.598"/><line stroke="#000000" stroke-width="5" stroke-linecap="round" stroke-miterlimit="10" x1="51.177" y1="22.2" x2="47.896" y2="25.48"/><path d="M76.274,83.335c-6.798,1.599-13.602-0.716-18.055-5.474c3.045,0.909,6.361,1.063,9.678,0.286  c10.116-2.379,16.389-12.51,14.01-22.625c-0.78-3.317-2.396-6.215-4.567-8.537c6.244,1.867,11.348,6.924,12.947,13.725  C92.664,70.827,86.392,80.956,76.274,83.335z"/><text x="0" y="115" fill="#000000" font-size="5px" font-weight="bold" font-family="'Helvetica Neue', Helvetica, Arial-Unicode, Arial, Sans-serif">Created by Linseed Studio</text><text x="0" y="120"  font-size="5px" font-weight="bold" font-family="'Helvetica Neue', Helvetica, Arial-Unicode, Arial, Sans-serif">from the Noun Project</text></svg>